HIERARCHY
ROOT hip
{
  OFFSET 0 0 0
  CHANNELS 6 Xposition Yposition Zposition Zrotation Yrotation Xrotation
  JOINT abdomen
  {
    OFFSET 0 20.6881 -0.73152
    CHANNELS 3 Zrotation Xrotation Yrotation
    JOINT chest
    {
      OFFSET 0 11.7043 -0.48768
      CHANNELS 3 Zrotation Xrotation Yrotation
      JOINT neck
      {
        OFFSET 0 22.1894 -2.19456
        CHANNELS 3 Zrotation Xrotation Yrotation
        JOINT head
        {
          OFFSET -0.24384 7.07133 1.2192
          CHANNELS 3 Zrotation Xrotation Yrotation
          JOINT leftEye
          {
            OFFSET 4.14528 8.04674 8.04672
            CHANNELS 3 Zrotation Xrotation Yrotation
            End Site
            {
              OFFSET 1 0 0
            }
          }
          JOINT rightEye
          {
            OFFSET -3.6576 8.04674 8.04672
            CHANNELS 3 Zrotation Xrotation Yrotation
            End Site
            {
              OFFSET 1 0 0
            }
          }
        }
      }
      JOINT rCollar
      {
        OFFSET -2.68224 19.2634 -4.8768
        CHANNELS 3 Zrotation Xrotation Yrotation
        JOINT rShldr
        {
          OFFSET -8.77824 -1.95073 1.46304
          CHANNELS 3 Zrotation Xrotation Yrotation
          JOINT rForeArm
          {
            OFFSET -28.1742 -1.7115 0.48768
            CHANNELS 3 Zrotation Xrotation Yrotation
            JOINT rHand
            {
              OFFSET -22.5879 0.773209 7.07136
              CHANNELS 3 Zrotation Xrotation Yrotation
              JOINT rThumb1
              {
                OFFSET -1.2192 -0.487915 3.41376
                CHANNELS 3 Zrotation Xrotation Yrotation
                JOINT rThumb2
                {
                  OFFSET -3.37035 -0.52449 3.41376
                  CHANNELS 3 Zrotation Xrotation Yrotation
                  End Site
                  {
                    OFFSET -1.78271 -1.18214 1.43049
                  }
                }
              }
              JOINT rIndex1
              {
                OFFSET -7.75947 0.938293 5.60832
                CHANNELS 3 Zrotation Xrotation Yrotation
                JOINT rIndex2
                {
                  OFFSET -2.54057 -0.884171 1.56538
                  CHANNELS 3 Zrotation Xrotation Yrotation
                  End Site
                  {
                    OFFSET -1.62519 -0.234802 1.16502
                  }
                }
              }
              JOINT rMid1
              {
                OFFSET -8.24714 1.18213 3.41376
                CHANNELS 3 Zrotation Xrotation Yrotation
                JOINT rMid2
                {
                  OFFSET -3.10165 -0.590103 1.0647
                  CHANNELS 3 Zrotation Xrotation Yrotation
                  End Site
                  {
                    OFFSET -2.48547 -0.328903 0.83742
                  }
                }
              }
              JOINT rRing1
              {
                OFFSET -8.82822 0.546677 1.51678
                CHANNELS 3 Zrotation Xrotation Yrotation
                JOINT rRing2
                {
                  OFFSET -2.60934 -0.819778 -0.0198488
                  CHANNELS 3 Zrotation Xrotation Yrotation
                  End Site
                  {
                    OFFSET -2.33842 -0.294052 0.168128
                  }
                }
              }
              JOINT rPinky1
              {
                OFFSET -8.27202 -0.0477905 -0.4584
                CHANNELS 3 Zrotation Xrotation Yrotation
                JOINT rPinky2
                {
                  OFFSET -1.82734 -0.647385 -0.700984
                  CHANNELS 3 Zrotation Xrotation Yrotation
                  End Site
                  {
                    OFFSET -1.69225 -0.51767 -0.607171
                  }
                }
              }
            }
          }
        }
      }
      JOINT lCollar
      {
        OFFSET 2.68224 19.2634 -4.8768
        CHANNELS 3 Zrotation Xrotation Yrotation
        JOINT lShldr
        {
          OFFSET 8.77824 -1.95073 1.46304
          CHANNELS 3 Zrotation Xrotation Yrotation
          JOINT lForeArm
          {
            OFFSET 28.1742 -1.7115 0.48768
            CHANNELS 3 Zrotation Xrotation Yrotation
            JOINT lHand
            {
              OFFSET 22.5879 0.773209 7.07136
              CHANNELS 3 Zrotation Xrotation Yrotation
              JOINT lThumb1
              {
                OFFSET 1.2192 -0.487915 3.41376
                CHANNELS 3 Zrotation Xrotation Yrotation
                JOINT lThumb2
                {
                  OFFSET 3.37035 -0.52449 3.41376
                  CHANNELS 3 Zrotation Xrotation Yrotation
                  End Site
                  {
                    OFFSET 1.78271 -1.18214 1.43049
                  }
                }
              }
              JOINT lIndex1
              {
                OFFSET 7.75947 0.938293 5.60832
                CHANNELS 3 Zrotation Xrotation Yrotation
                JOINT lIndex2
                {
                  OFFSET 2.54057 -0.884171 1.56538
                  CHANNELS 3 Zrotation Xrotation Yrotation
                  End Site
                  {
                    OFFSET 1.62519 -0.234802 1.16502
                  }
                }
              }
              JOINT lMid1
              {
                OFFSET 8.24714 1.18213 3.41376
                CHANNELS 3 Zrotation Xrotation Yrotation
                JOINT lMid2
                {
                  OFFSET 3.10165 -0.590103 1.0647
                  CHANNELS 3 Zrotation Xrotation Yrotation
                  End Site
                  {
                    OFFSET 2.48547 -0.328903 0.83742
                  }
                }
              }
              JOINT lRing1
              {
                OFFSET 8.82822 0.546677 1.51678
                CHANNELS 3 Zrotation Xrotation Yrotation
                JOINT lRing2
                {
                  OFFSET 2.60934 -0.819778 -0.0198488
                  CHANNELS 3 Zrotation Xrotation Yrotation
                  End Site
                  {
                    OFFSET 2.33842 -0.294052 0.168128
                  }
                }
              }
              JOINT lPinky1
              {
                OFFSET 8.27202 -0.0477905 -0.4584
                CHANNELS 3 Zrotation Xrotation Yrotation
                JOINT lPinky2
                {
                  OFFSET 1.82734 -0.647385 -0.700984
                  CHANNELS 3 Zrotation Xrotation Yrotation
                  End Site
                  {
                    OFFSET 1.69225 -0.51767 -0.607171
                  }
                }
              }
            }
          }
        }
      }
    }
  }
  JOINT rButtock
  {
    OFFSET -8.77824 4.35084 1.2192
    CHANNELS 3 Zrotation Xrotation Yrotation
    JOINT rThigh
    {
      OFFSET 0 -1.70687 -2.19456
      CHANNELS 3 Zrotation Xrotation Yrotation
      JOINT rShin
      {
        OFFSET 0 -36.8199 0.73152
        CHANNELS 3 Zrotation Xrotation Yrotation
        JOINT rFoot
        {
          OFFSET 0.73152 -45.1104 -5.12064
          CHANNELS 3 Zrotation Xrotation Yrotation
          End Site
          {
            OFFSET -1.1221 -3.69964 12.103
          }
        }
      }
    }
  }
  JOINT lButtock
  {
    OFFSET 8.77824 4.35084 1.2192
    CHANNELS 3 Zrotation Xrotation Yrotation
    JOINT lThigh
    {
      OFFSET 0 -1.70687 -2.19456
      CHANNELS 3 Zrotation Xrotation Yrotation
      JOINT lShin
      {
        OFFSET 0 -36.8199 0.73152
        CHANNELS 3 Zrotation Xrotation Yrotation
        JOINT lFoot
        {
          OFFSET -0.73152 -45.1104 -5.12064
          CHANNELS 3 Zrotation Xrotation Yrotation
          End Site
          {
            OFFSET 1.1221 -3.69964 12.103
          }
        }
      }
    }
  }
}
MOTION
Frames:	8
Frame Time:	0.03333
12.0821 63.071299999999994 72.1465 -5.488295 -29.446743 4.527992 2.304297 13.866177 -0.459257 0.101119 -6.390764 5.249803 -7.338098 29.557784 -114.824637 37.066353 26.46093 128.561584 -0.001233 0.0 -0.000409 -0.001233 0.0 -0.000409 -9.651379 34.83636 11.198395 -112.581536 6.369388 165.931011 1.824278 -4.535536 -135.490389 163.45819 -29.795027 141.336556 -173.771083 -11.439803 89.891165 -145.43424 8.036459 75.181639 112.656616 -76.284164 61.486919 -46.732356 52.897268 37.634292 173.123961 -66.29783 137.614767 3.261919 -0.643282 0.17251 -69.294954 72.946882 87.016776 -159.826209 -1.726053 176.401692 0.09909 0.258035 0.092525 -5.236986 -17.921823 -6.862686 155.613643 -4.236552 -161.990696 -139.205712 -12.845188 178.154853 101.827378 -25.733867 -41.08297 -83.347632 -79.230293 -65.423408 178.519121 -16.064293 -89.476338 60.349949 -2.31396 -12.474057 0.328614 0.529461 -0.187166 152.103756 -0.025309 -109.291401 -68.985898 -80.153314 -40.579941 163.466488 -4.715782 -143.155012 -4e-05 -0.018635 0.004871 23.382143 72.955859 -36.412606 163.641192 74.5741 150.517512 137.751174 -14.668051 133.650402 0.000281 0.000789 -0.0 -8.721878 -19.232188 -134.014147 -53.020551 -38.259696 58.76611 -121.519049 -30.451405 -7.698196 -0.001779 0.001463 -0.002668 44.482954 -47.215223 53.230077 33.187912 54.23289 80.893283 -144.879895 33.790344 94.460905
12.229800000000001 62.7675 73.27510000000001 -5.68633 -25.637538 4.146997 2.548965 13.202553 -0.0 0.45853 -6.000092 5.050871 -8.116368 28.446178 -108.093983 38.58025 22.869769 119.929181 0.003299 0.0 0.000629 0.003299 0.0 0.000629 -132.776539 52.552674 136.71826 51.795444 -24.20572 65.958602 110.837639 59.903569 107.08425 175.767978 4.574472 146.508722 -171.705782 -9.388398 89.949866 144.68882 -47.343815 97.733671 -10.678716 15.143543 6.942944 -168.450308 -20.786157 109.711207 -0.286729 0.832754 0.160041 -129.270366 52.116328 118.506133 -0.021504 -1.725739 -0.544481 -154.251766 11.212612 170.334717 -15.000554 -27.660689 -14.302601 -158.218624 52.520516 -149.704336 -4.224834 -44.072813 8.510638 -72.072289 29.27191 26.36594 95.453917 -28.084236 -66.070071 -110.075201 -78.254602 -91.07074 -114.538285 -50.244833 -55.721708 177.027871 -84.744586 -147.847616 -10.746074 -19.048299 4.724496 -19.533368 -8.454686 1.928565 -6.532356 -20.415032 2.718578 -2.761872 1.172017 -0.146904 73.16395 -72.141474 90.198597 -14.737132 1.753881 4.373345 139.223595 -4.396584 136.390432 155.103891 36.397195 145.991895 179.995399 75.749031 0.004059 163.345589 57.688744 -160.50834 -3.260757 -63.200537 102.425557 -45.56764 -49.288089 25.306767 0.017335 0.000613 0.013001 44.349776 -48.987353 37.001257 6.577236 55.975436 59.728041 51.786078 -62.174333 -65.958135
12.4916 62.265800000000006 74.4733 -6.363405 -22.022658 3.786298 1.72855 12.150013 41.559105 -1.850928 -5.335165 -35.975557 11.373288 19.86699 81.058381 -34.572335 2.616032 -65.032271 0.005314 -0.0 -0.002532 -0.000386 0.0 -0.001948 2.459745 -18.216264 -3.670249 -0.670386 -51.036254 -56.579416 118.191078 -82.675241 -22.260052 166.943472 -21.79991 143.354428 -0.49083 0.485043 0.076744 -140.227711 -45.445382 119.444756 5.771644 -9.909274 -2.905315 8.946983 5.45118 0.1889 -148.319293 24.248325 135.133194 -161.13188 1.243116 142.264651 0.005157 1.771562 0.555333 -61.655665 -86.808192 -83.060518 -145.369763 12.683188 -141.9942 1.326261 -2.375641 -2.747281 -0.034391 -0.209564 0.04558 106.705682 -11.962112 -163.976485 -7.065566 -10.890515 134.318482 175.420651 -0.076165 -142.496039 -6.4638 -6.452617 0.634932 -13.610706 -26.733546 15.634673 -29.400432 -49.645638 4.15884 -126.662058 -64.099557 -65.031379 160.097969 -4.901532 -142.967674 -3.440367 -0.617332 -0.281127 145.12065 0.268157 179.211622 -11.539914 20.329268 6.654769 163.654682 74.574002 150.506194 161.831574 54.088621 147.73415 0.001425 0.000777 -0.0 -8.215555 -13.253353 180.0 5.16657 -61.778601 110.916789 -58.71663 -53.703116 17.567713 0.0 0.000777 -0.001109 46.647134 -51.702903 -83.645515 -53.431092 -36.580059 10.824548 148.583519 40.962303 -104.435278
12.7255 61.638000000000005 75.5803 -7.278489 -19.412921 3.683934 2.546117 8.552387 119.326937 -3.296261 -1.09333 -112.888619 -9.41485 26.003863 -94.106481 38.796749 15.115672 103.594159 0.001492 -0.0 -0.000721 0.001492 -0.0 -0.000721 -0.048692 0.292389 0.065301 67.651198 39.339102 -18.346148 -178.354455 32.507585 43.270488 165.615762 -25.344187 142.52669 -175.197968 -12.846278 89.80692 -152.776791 4.931199 80.728095 -69.680823 43.292819 57.342877 6.220413 -0.135257 -3.957132 -0.218923 0.638622 0.122223 -172.069052 -31.34522 144.106614 0.00113 -0.060722 -0.019954 11.503455 -26.217657 -3.143316 -7.144875 -15.707259 -6.728096 -158.296602 52.461274 -149.874769 159.21139 -46.728591 -170.137179 -116.643241 41.269055 126.995797 12.560083 4.924777 -103.230255 3.829747 -14.573645 3.582737 94.791452 37.828899 -54.284032 170.860213 -37.121603 -78.234123 151.353794 -17.158261 -121.133037 134.231852 32.280036 -108.317011 158.521127 -0.192246 -142.145228 -166.233194 -64.799671 -131.557484 0.022227 -1.725234 0.541941 -9.137779 14.955634 -1.997001 150.033948 28.96575 145.936121 -16.587117 43.856741 -6.107449 -179.985142 75.75023 -0.010166 161.52964 66.46029 16.880655 -6.68613 58.477395 -72.9513 96.712827 26.210299 9.421733 0.000674 -0.000588 -0.000866 47.076316 -52.763389 -85.089239 -49.365787 -29.919974 102.306642 -122.695656 -46.403232 9.683857
12.8634 61.2371 76.36749999999999 -8.523176 -17.963448 4.231719 4.74282 6.606194 144.201744 -2.4306 0.208437 -136.69408 -7.901482 29.023364 -114.520548 35.300247 26.432353 119.40228 -0.004064 0.0 -0.00222 0.001629 -0.0 -0.00285 -155.416681 -2.951639 161.718083 163.198809 29.943814 143.320048 -33.866833 9.42799 116.972848 4.384463 -8.999524 1.690829 -174.191999 -11.857946 89.87019 -142.103473 9.602955 72.94943 -140.68342 1.505141 116.182569 -157.192522 -2.898718 118.431903 -171.803619 -40.922048 145.171747 -172.400526 -31.341303 143.697016 -0.021043 -1.725025 -0.543331 -153.883801 14.724438 169.809656 -148.683513 23.978335 -144.837128 -162.593477 55.820243 -146.712468 -2.530441 -18.881241 3.793208 103.992562 -8.829881 -178.472131 0.207425 6.408768 133.207261 178.250848 -8.247974 -143.251898 -4.530181 -4.5144 0.520373 -15.492355 -28.336852 15.308703 69.681041 43.293096 -57.342659 11.612881 24.725125 -3.599947 -173.121873 -66.297579 -137.613294 163.525554 -4.950928 -143.08826 145.118985 0.26838 179.211182 -10.242142 0.376203 8.952229 -12.251961 41.424906 -10.28171 23.590233 -39.93493 23.706937 -0.000777 0.000687 0.000999 -5.111532 -7.290905 -88.448512 -64.346524 4.529911 -73.315326 57.068109 -17.895284 138.391804 -179.984665 75.748955 -0.013531 -153.217147 12.295418 -0.0 20.469959 60.140524 66.647674 -63.326143 -80.967482 -176.984138
13.026499999999999 60.826499999999996 77.1343 -9.56204 -16.720286 4.792458 5.469156 5.723131 136.165209 -2.820855 -0.154569 -127.582679 8.922072 16.250237 58.271529 -27.638376 -9.937452 -50.426479 0.001111 -0.0 -0.002454 0.001277 -0.0 -0.002352 -155.548826 -3.804368 161.899551 112.174153 -47.999089 141.432614 116.710454 59.23164 100.427976 175.831476 4.346189 146.401323 11.51034 -11.486557 -0.622158 89.000687 -87.642404 22.329436 -83.73332 42.329562 69.989594 -75.911864 52.702091 54.147639 6.533067 -20.414893 -2.719177 -163.803432 -6.165597 143.475574 -74.839913 72.962437 92.827416 -158.641899 -28.227626 -179.765011 -75.777385 -51.668887 -74.249862 -84.410475 -52.988911 -84.876143 80.166112 68.371776 -83.260848 -76.620124 -28.002958 -91.779122 20.953877 -32.735466 -88.335186 2.19088 -20.465945 3.760806 5.433497 5.265027 -1.077826 0.268268 1.292228 -3.728155 -12.217647 -21.784371 5.121025 -176.276807 -42.911774 -102.972926 -173.125241 -66.298021 -137.615129 13.639895 36.160333 -10.874943 -0.001487 0.064084 -0.018434 -6.906146 29.711908 -4.680394 136.040774 -11.443532 133.395422 160.544984 52.8107 146.978728 0.0 1.7e-05 -0.000188 -4.228648 -4.467194 -43.50964 -44.867904 34.237714 -16.660924 -137.768823 -38.746117 -28.611654 179.999259 75.749625 0.000765 -152.306234 10.258157 -4.75461 4.961935 69.078476 140.351689 108.190994 59.177177 173.928957
13.1823 60.246900000000004 77.8645 -10.205508 -15.328097 4.853054 5.903472 5.382145 132.212032 -3.307986 -0.183866 -122.846335 3.731779 32.420577 176.714619 -2.895014 44.518865 -166.35807 0.005676 0.0 0.002386 -0.000716 0.0 -0.00258 -85.537849 68.182828 88.68884 46.528889 -3.143524 53.639968 -153.069214 44.567354 25.08209 154.530966 -44.562641 134.948383 -2.608162 2.554726 0.456945 -37.157055 25.327842 34.396202 -159.784405 -32.611249 122.692014 -84.885754 56.64162 68.104197 -0.057071 0.167989 0.031896 -7.30741 26.196874 6.027931 -145.119177 0.185161 -179.187223 -71.159699 87.694743 84.428995 -126.797547 -26.618565 -124.511361 -160.66896 54.423219 -147.249578 150.064813 21.887921 -155.157254 54.886752 8.502378 -13.451263 92.056713 24.989802 110.163667 -42.953355 -74.353996 -27.171959 174.390332 -12.052739 -89.859849 -114.703606 -63.816087 -85.592229 -60.459557 -70.524585 -15.708513 47.531576 51.802027 -38.796206 160.673357 -6.667794 -143.245256 147.964406 31.449182 -134.124814 145.118561 0.309803 179.22634 73.708225 -78.004209 95.207142 11.661943 -23.131334 11.069075 -37.472771 80.884041 0.510388 0.0 -0.000932 8e-05 -4.520792 -2.654367 -0.299703 15.593569 58.725731 151.346606 -65.666623 46.518119 -165.277998 -0.0 0.000151 0.00077 55.03374 -54.199554 -49.290256 -59.734718 -10.577784 67.104567 134.131892 -12.681408 -45.238669
13.319600000000001 59.9047 78.5195 -11.80036 -13.927414 5.506791 9.740027 8.470241 -1.043143 0.105048 -6.295793 10.672995 10.196854 17.848682 70.706758 -30.468627 -3.218097 -63.493656 0.002532 -0.0 -0.000114 -0.003149 -0.0 0.000621 -149.905177 22.421404 154.974346 -178.616484 24.037616 123.547371 -2.659576 61.947325 107.822717 -8.206996 30.39904 1.778818 -85.829322 38.630538 47.955511 46.767123 -38.766957 22.795528 -10.677264 15.144254 6.941861 0.274793 12.829679 2.297105 -160.573681 -6.359022 143.199148 -36.032165 55.537119 30.619838 0.001052 0.063899 0.01878 -155.453395 -1.619296 172.03993 -145.171372 12.067362 -141.824229 -53.644207 -51.614435 -53.910154 9.651338 34.836348 -11.198477 114.069825 -4.923011 -128.416407 -78.94273 -32.440215 96.721658 143.253108 54.683829 -118.491279 -2.462845 -2.445974 0.326797 -51.172481 -75.891532 12.536902 160.014921 -33.011973 -122.698281 161.689729 -19.753789 -119.447908 -89.034568 -81.394357 -59.760967 163.944959 -6.180373 -143.292921 145.097329 -1.603931 178.62377 76.029525 -77.980582 97.694255 -1.134014 3.040605 -1.0443 154.267645 36.619721 148.349256 -179.938472 75.749044 -0.047422 170.729609 73.602816 -41.453878 -45.058671 30.140304 -14.783476 65.970997 12.324586 29.389092 -0.001944 0.000592 -0.001944 58.724449 -56.309789 -116.812375 -17.693186 -61.03649 146.925283 67.943338 7.11082 -17.513093
